<?xml version="1.0" encoding="utf-8"?>
<!-- Generator: Adobe Illustrator 25.0.1, SVG Export Plug-In . SVG Version: 6.00 Build 0)  -->
<svg version="1.1" id="Layer_1" xmlns="http://www.w3.org/2000/svg" xmlns:xlink="http://www.w3.org/1999/xlink" x="0px" y="0px"
	 viewBox="0 0 439.4 99.2" style="enable-background:new 0 0 439.4 99.2;" xml:space="preserve">
<style type="text/css">
	.st0{fill:#FFFFFF;}
</style>
<path class="st0" d="M432.6,47.4c0,5.5-0.9,10.7-2.6,15.7c-1.8,5-4.2,9.3-7.5,12.8c-4.6,5.1-9.9,8.7-15.9,10.9
	c-1.8,0.6-3.7,1.2-5.8,1.6c-0.1,0-0.1-0.1-0.2-0.1c-5.1-3.3-7-9.3-7.8-15.4c0-0.1-0.1-0.2-0.2-0.2c-4.1-1.2-7.7-3.3-8.1-5
	c0.1,0.2,0.4,0.5,0.5,0.6c3.6,2.6,7.3,3.8,11.8,3.1c2.7-0.4,5.5-0.2,8.2-0.3c0.5,0,1.1-0.1,1.5-0.4c1.4-0.8,1.9-2.2,2.1-3.7
	c0.2-1-0.1-1.7-1-2.3c-0.8-0.5-7.5-5-9.8-6.8c-1.9-1.5-3.7-3.2-5.6-4.8c-0.1-0.1-0.2-0.2-0.2-0.4c-0.2-2.3,0.1-4.5,1-6.5
	c1.3-3.1,4.2-3.6,6.9-4.2c2.4-0.5,4.8-1.1,6.9-2.6c2.8-2.1,3.9-5.1,4.2-8.4c0.4-4.2-1.9-13.1-2.1-13.6c0,1.2,0,2.4,0,3.5
	c0,3.2,0.1,6.4-0.2,9.5c-0.1,1.2-0.5,2.6-1.2,3.5c-0.1,0.1-0.2,0.1-0.2,0c-0.2-1.2-0.8-5.8-2.3-7.7c0.1,2.4,0.3,4.9,0.3,7.3
	c0,1.7-0.4,3.3-2.4,3.8c-2.3,0.5-4.5,1.2-6.7,1.9c-0.7,0.2-1.3,0.4-2,0.6c-0.2,0-0.3,0-0.4-0.2c-0.7-3.1-0.5-6,0.2-9
	c-0.2-0.1-0.6,0.4-0.7,0.7c-1.4,2.8-1.8,5.8-1.8,8.9c0,1.1-0.1,2.1-0.7,3.2c-0.5,0.9-0.7,2-0.9,3c-0.3,1.6-0.5,3.3-0.8,4.9
	c0,0.3-0.3,0.5-0.6,0.5c-1.4,0.1-1.5-0.1-1.8-1.7c-0.4-2.2-0.9-4.5-2.3-6.2c-0.6-0.7-0.7-1.4-0.7-2.3c0.1-3-0.5-5.9-2-8.5
	c-0.4-0.6-0.9-1.2-1.3-1.7c0.5,3.2,1.3,6.2,0,9.2c0,0.1-0.1,0.1-0.2,0.1c-1.9-0.3-12-1.7-14.9-3c-1.9-0.8-2.9-4.2-3.1-7.7
	c-0.3,0.1-0.6,2.2-0.6,2.7c0,0.3-0.3,2.4-0.1,3.1c0,0-1.4-0.9-1.9-1.6c-0.7-0.9-1.3-1.8-1.6-3.2c-0.8-4.3-0.3-8.5,0-12.8
	c0-0.1,0-0.8,0-0.8c-0.2,0-2,5.8-2.2,6.4c-1.1,4-1.3,8.6,0.9,12.3c0.5,0.9,1.2,1.7,1.9,2.3c2.6,2.3,5.8,3.2,9,3.8
	c3.1,0.6,6.3,1,9.4,1.7c4.5,0.9,6.3,4.7,6.1,8.9c0,0.6-0.4,0.8-0.6,0.8c-0.3,0-0.6-0.3-0.8-0.5c-3.3-4.2-7.7-5.9-12.8-6.5
	c-0.1,0-0.2,0.1-0.2,0.2c0.8,3.2,2.1,5.9,4,8.4c1.6,2,3.7,3.1,6.3,3.2c0.1,0,0.1,0.1,0.2,0.1c0,0.4,0,0.9-0.1,1.3
	c-0.9,3.8-1.9,7.6-2.7,11.5c-0.7,3.5-1.3,7-2,10.5c-0.6,2.7-0.9,5.4-1.2,8.1h-30.9v-1c3.2-0.8,5.5-2.6,6.7-5.6
	c1.2-2.9,1.8-10.2,1.8-21.9V20c0-3.3-0.5-5.8-1.6-7.3c-1.1-1.6-2.9-2.6-5.4-3l0.1-1.3c1.9,0,4,0.1,6.1,0.1s5,0,8.7,0
	c3.3,0,7.3,0,12.1-0.1c4.7-0.1,7.7-0.1,9.1-0.1c8.9,0,16.2,0.7,21.8,2c5.6,1.3,10.6,3.4,14.9,6.3c5.2,3.6,9.2,8,11.9,13.2
	C431.3,35,432.6,40.8,432.6,47.4z"/>
<g>
	<g>
		<path class="st0" d="M7.4,53.7l4-13.5h0.9c0.9,5.1,2.8,9,5.7,11.6c2.9,2.7,6.6,4,11.1,4c3.8,0,6.7-0.9,8.8-2.6
			c2.1-1.7,3.2-4.1,3.2-7.1c0-2.1-0.8-3.8-2.3-4.9c-1.5-1.1-5-2.2-10.5-3.3c-4.6-0.9-7.8-1.7-9.6-2.4C17,34.9,15.4,34,14.3,33
			c-1.3-1.2-2.3-2.6-3-4.2s-1.1-3.3-1.1-5.1c0-4.5,2-8.2,6-10.9c4-2.8,9.2-4.2,15.8-4.2c3.3,0,6.5,0.3,9.7,1s6.1,1.6,8.9,2.9
			L47.2,24h-1c-1-4.3-2.7-7.4-5-9.6c-2.3-2.1-5.3-3.2-9-3.2c-3.2,0-5.8,0.8-7.8,2.3s-3,3.5-3,5.9c0,1,0.2,1.9,0.6,2.7
			c0.4,0.8,1,1.6,1.9,2.2c1.3,1,4.4,1.9,9.3,2.8c2,0.4,3.5,0.6,4.6,0.9c5.1,1,8.8,2.6,11.2,4.8s3.6,5.2,3.6,8.9
			c0,4.9-2.1,8.9-6.4,12.1c-4.2,3.1-9.8,4.7-16.6,4.7c-4.2,0-8.2-0.4-12-1.2C13.9,56.4,10.5,55.3,7.4,53.7z"/>
		<path class="st0" d="M73.9,30.6c0.6,0.1,1.4,0.1,2.4,0.1c0.9,0,2.6,0,5.1,0h5.9c1.2,0,2.4,0,3.6,0s2.5-0.1,3.9-0.1V16.3
			c0-1.7-0.3-2.9-1-3.8c-0.7-0.9-1.8-1.5-3.3-1.8v-1c1.7,0.1,3.4,0.2,5.1,0.2s3.5,0.1,5.2,0.1c1.8,0,3.5,0,5.2-0.1
			c1.7,0,3.5-0.1,5.2-0.2v1c-1.5,0.3-2.6,0.8-3.3,1.7c-0.7,0.9-1,2.2-1,3.9v24.2c0,6.2,0.4,10.3,1.1,12.2s2.1,3.1,4.1,3.5v0.9
			c-1.5-0.1-3.1-0.1-4.8-0.2c-1.7,0-3.8-0.1-6.5-0.1s-4.9,0-6.5,0.1c-1.6,0-3.2,0.1-4.7,0.2v-0.9c2-0.4,3.3-1.5,4.1-3.3
			c0.7-1.8,1.1-5.9,1.1-12.4v-7.1c-0.8,0-1.7-0.1-2.7-0.1s-2.6,0-4.8,0h-5.9c-2.2,0-3.8,0-4.8,0s-1.9,0.1-2.7,0.1v7.1
			c0,6.4,0.4,10.4,1.1,12.2s2.1,3,4.1,3.5v0.9c-1.6-0.1-3.2-0.1-4.9-0.2S70.3,57,67.5,57c-2.7,0-4.8,0-6.4,0.1
			c-1.6,0-3.1,0.1-4.5,0.2v-0.9c2-0.4,3.3-1.5,4.1-3.3c0.7-1.8,1.1-5.9,1.1-12.4V16.3c0-1.7-0.3-2.9-1-3.8c-0.7-0.9-1.8-1.5-3.3-1.9
			v-1c1.6,0.1,3.3,0.2,4.9,0.2c1.7,0,3.4,0.1,5.1,0.1c1.9,0,3.7,0,5.5-0.1c1.8,0,3.5-0.1,5.3-0.2v1c-1.5,0.3-2.6,0.9-3.3,1.8
			s-1,2.2-1,3.9L73.9,30.6L73.9,30.6z"/>
		<path class="st0" d="M112.4,57.2v-0.9c1.7-0.7,3.5-2.3,5.4-4.8s4.1-6.1,6.6-11l16.3-32h0.6l17,31.7c3.6,6.6,6.1,10.9,7.6,12.9
			s2.9,3,4.1,3.2v0.9c-1.3-0.1-2.7-0.1-4.2-0.2s-3.4-0.1-5.8-0.1c-3,0-5.5,0-7.6,0.1c-2,0-4,0.1-5.9,0.2v-0.9c1.2-0.2,2-0.5,2.5-0.9
			s0.7-1.1,0.7-2.1c0-0.8-0.3-2.1-0.9-3.7c-0.6-1.7-1.5-3.7-2.7-6.2l-2.5-5H129l-1.2,2.4c-1.2,2.5-2.1,4.6-2.7,6.3s-0.9,3-0.9,4.1
			c0,1.4,0.5,2.6,1.4,3.4c0.9,0.9,2.2,1.4,3.9,1.6v0.9c-1.2-0.1-2.5-0.1-3.7-0.2c-1.3,0-2.9-0.1-4.9-0.1s-3.6,0-4.8,0.1
			C114.6,57.1,113.5,57.1,112.4,57.2z M142.3,36.1l-6.2-13l-6.2,13H142.3z"/>
		<path class="st0" d="M170.3,57v-0.6c1.9-0.4,3.3-1.5,4-3.2s1.1-5.9,1.1-12.6v-24c0-1.9-0.3-3.3-1-4.2s-1.7-1.5-3.2-1.7V9.9
			c1.2,0,2.4,0,3.6,0.1c1.3,0,3,0,5.2,0c2,0,4.4,0,7.2-0.1c2.8,0,4.6-0.1,5.4-0.1c5.3,0,9.7,0.4,13,1.1c3.4,0.8,6.3,2,8.9,3.7
			c3.1,2.1,5.5,4.6,7.1,7.6s2.4,6.4,2.4,10.2c0,3.2-0.5,6.2-1.6,9.1s-2.5,5.4-4.4,7.4c-2.7,2.9-5.9,5-9.5,6.3S200,57,193.8,57h-13.4
			H170.3z M187.5,12.6v27.7c0,3.1,0,5.6,0.1,7.3c0.1,1.8,0.2,3.1,0.4,3.9c0.3,1.2,0.9,2,1.9,2.5s2.6,0.7,5,0.7
			c4.8,0,8.6-1.9,11.2-5.7c2.6-3.8,4-9.1,4-16c0-7.2-1.3-12.5-4-15.9c-2.6-3.4-6.8-5.1-12.5-5.1c-0.9,0-1.9,0-2.9,0.1
			C189.8,12.4,188.7,12.5,187.5,12.6z"/>
		<path class="st0" d="M227.7,57.2v-0.9c2-0.4,3.3-1.5,4.1-3.3c0.7-1.8,1.1-5.9,1.1-12.4V16.5c0-1.7-0.3-2.9-1-3.8
			c-0.7-0.9-1.8-1.5-3.3-1.9v-1c0.1,0,0.2,0,0.4,0c5,0.1,8.8,0.1,11.3,0.1h30.1l4,12.1l-1.1,0.3c-3-3.4-6.4-5.9-10.3-7.5
			s-8.3-2.4-13.5-2.4c-1.2,0-2.1,0-2.6,0c-0.6,0-1.1,0.1-1.6,0.1v18.1c0.8,0,1.6,0.1,2.3,0.1c0.8,0,1.5,0,2.3,0
			c4.3,0,7.8-0.7,10.5-2.1c2.8-1.4,4.5-3.3,5.3-5.8h1v18h-1c-0.8-2.6-2.6-4.5-5.3-5.9c-2.7-1.3-6.3-2-10.7-2c-1.2,0-2.1,0-2.7,0
			s-1.2,0.1-1.8,0.1v6.6c0,6.6,0.5,10.7,1.6,12.2c1.1,1.6,3.4,2.3,6.8,2.3c4.3,0,8.4-1.1,12.1-3.3s7.3-5.5,10.6-9.9l1.2,0.4
			L273.1,57h-29.9c-0.5,0-1.3,0-2.4,0c-1.1,0-1.9,0-2.4,0c-1.9,0-3.7,0-5.5,0.1C231.1,57,229.4,57.1,227.7,57.2z"/>
		<path class="st0" d="M286.6,35.6c0,7,0.6,11.9,1.7,14.8c1.1,2.9,3.1,4.8,6,5.9v0.9c-1.8-0.1-3.4-0.1-4.8-0.2
			c-1.4,0-2.7-0.1-3.8-0.1c-1.3,0-2.8,0-4.3,0.1c-1.5,0-3.1,0.1-4.7,0.2v-0.9c2.6-1.1,4.4-3.2,5.5-6.3s1.6-7.9,1.6-14.5V21.3
			c0-3.8-0.4-6.4-1.1-7.7s-2-2.3-3.9-2.9V9.8c2.4,0,4.4,0.1,5.8,0.1s2.7,0,3.9,0c0.8,0,1.9,0,3.5,0c1.5,0,2.7,0,3.5,0
			c3.5,3.9,7.5,8.1,11.8,12.6s9.8,9.9,16.4,16.4v-7.5c0-7.7-0.5-12.8-1.6-15.3s-3.1-4.3-6-5.4v-1c1.7,0.1,3.3,0.1,4.7,0.2
			c1.4,0,2.7,0.1,3.8,0.1c1.4,0,2.8,0,4.3-0.1c1.5,0,3.1-0.1,4.8-0.2v0.9c-2.8,1.3-4.7,3.1-5.7,5.5s-1.6,7.5-1.6,15.2v26.5l-1.6,0.5
			c-6.5-7-13-13.9-19.3-20.6c-6.4-6.7-12.7-13.3-18.9-19.7L286.6,35.6L286.6,35.6z"/>
	</g>
</g>
<g>
	<path class="st0" d="M26.5,88.5c-1.2,0.8-2.5,1.5-3.9,1.9S19.7,91,18.1,91c-1.4,0-2.8-0.2-4.1-0.6s-2.4-1-3.4-1.8
		c-1.1-0.9-1.9-2-2.5-3.1c-0.5-1.2-0.8-2.5-0.8-4.1c0-2.8,1-5.1,3-6.8s4.7-2.6,8-2.6c1.4,0,2.7,0.2,3.9,0.5c1.3,0.3,2.5,0.9,3.6,1.6
		l-1.3,4.4l-0.4-0.1c-0.3-1.8-0.9-3.1-1.8-4S20.2,73,18.7,73c-1.9,0-3.3,0.7-4.4,2.2s-1.6,3.5-1.6,6.1c0,2.8,0.5,5,1.6,6.5
		s2.6,2.3,4.5,2.3c1.6,0,2.9-0.5,3.8-1.5s1.6-2.6,1.9-4.8h0.4L26.5,88.5z"/>
	<path class="st0" d="M34.2,84.1c0,2.4,0.1,4,0.4,4.7c0.3,0.7,0.8,1.2,1.6,1.3v0.4c-0.6,0-1.2,0-1.9-0.1c-0.6,0-1.5,0-2.6,0
		c-1,0-1.8,0-2.4,0s-1.2,0-1.7,0.1v-0.4c0.8-0.2,1.3-0.6,1.6-1.3c0.3-0.7,0.4-2.3,0.4-4.8v-9.3c0-0.6-0.1-1.1-0.4-1.4
		c-0.2-0.3-0.7-0.6-1.3-0.7v-0.4c0.7,0,1.4,0,2,0c0.7,0,1.5,0,2.5,0h2.9c4.1,0,6.9,0.3,8.4,1S46,75,46,76.6c0,1.2-0.6,2.2-1.8,3
		s-2.9,1.2-5,1.3c1.5,0.1,2.7,0.5,3.6,1.1c0.9,0.6,1.6,1.6,2.2,3c0.1,0.2,0.2,0.5,0.3,0.8c0.9,2.3,1.9,3.7,3,4.1v0.4
		c-0.9,0-1.9,0-2.9,0s-2.3,0-3.9,0c-0.4-0.7-0.8-1.9-1.3-3.5c-0.4-1.6-0.9-2.7-1.3-3.4c-0.5-0.8-1-1.4-1.7-1.7
		c-0.7-0.4-1.5-0.5-2.6-0.5c-0.1,0-0.2,0-0.3,0s-0.2,0-0.3,0v2.9H34.2z M34.2,80.3c0.2,0,0.4,0,0.7,0c0.6,0,1.1,0,1.3,0
		c1.5,0,2.7-0.3,3.6-0.9c0.8-0.6,1.3-1.5,1.3-2.6c0-1.2-0.4-2.1-1.3-2.6c-0.8-0.6-2.1-0.9-3.8-0.9c-0.4,0-0.8,0-1,0
		c-0.3,0-0.5,0-0.8,0V80.3z"/>
	<path class="st0" d="M51.9,90.2c0.8-0.2,1.3-0.6,1.5-1.3c0.3-0.7,0.4-2.3,0.4-4.8v-1.8l-4.1-6.1c-0.9-1.3-1.6-2.3-2.2-2.8
		c-0.6-0.6-1.1-0.8-1.6-0.9v-0.3c0.7,0,1.4,0,2.1,0.1c0.7,0,1.3,0,2,0c0.8,0,1.5,0,2.2,0s1.4,0,2.1-0.1v0.3
		c-0.3,0.1-0.6,0.2-0.7,0.3c-0.1,0.2-0.2,0.4-0.2,0.7c0,0.2,0.1,0.5,0.2,0.8c0.1,0.3,0.3,0.6,0.5,0.9l3.8,5.3l2.5-3.9
		c0.4-0.6,0.7-1.1,0.9-1.6s0.3-0.8,0.3-1.1c0-0.4-0.1-0.7-0.4-1c-0.3-0.2-0.7-0.4-1.3-0.4v-0.3c0.5,0,1.1,0.1,1.6,0.1s1.1,0,1.6,0
		s1,0,1.5,0s1,0,1.5-0.1v0.3c-0.6,0.1-1.3,0.6-2.1,1.4c-0.8,0.8-1.7,1.9-2.6,3.3l-3,4.8v2.1c0,2.5,0.1,4.1,0.4,4.8
		c0.3,0.7,0.8,1.2,1.5,1.3v0.3c-1,0-1.8,0-2.5-0.1c-0.7,0-1.3,0-1.8,0c-0.6,0-1.3,0-2,0s-1.4,0-2.1,0.1
		C51.9,90.5,51.9,90.2,51.9,90.2z"/>
	<path class="st0" d="M66.5,89.2L68,84h0.3c0.3,2,1.1,3.4,2.2,4.5c1.1,1,2.5,1.5,4.3,1.5c1.4,0,2.6-0.3,3.4-1s1.2-1.6,1.2-2.7
		c0-0.8-0.3-1.4-0.9-1.9c-0.6-0.4-1.9-0.9-4-1.3c-1.8-0.3-3-0.7-3.7-0.9c-0.7-0.3-1.3-0.6-1.7-1c-0.5-0.5-0.9-1-1.2-1.6
		c-0.3-0.6-0.4-1.3-0.4-2c0-1.7,0.8-3.1,2.3-4.2s3.5-1.6,6.1-1.6c1.3,0,2.5,0.1,3.7,0.4c1.2,0.2,2.4,0.6,3.4,1.1l-1.3,4.4h-0.4
		c-0.4-1.6-1-2.9-1.9-3.7c-0.9-0.8-2-1.2-3.5-1.2c-1.2,0-2.2,0.3-3,0.9S71.7,75,71.7,76c0,0.4,0.1,0.7,0.2,1
		c0.2,0.3,0.4,0.6,0.7,0.9c0.5,0.4,1.7,0.7,3.6,1.1c0.8,0.1,1.4,0.2,1.8,0.3c1.9,0.4,3.4,1,4.3,1.9s1.4,2,1.4,3.4
		c0,1.9-0.8,3.4-2.4,4.6C79.8,90.4,77.7,91,75,91c-1.6,0-3.1-0.2-4.6-0.5C69,90.2,67.7,89.8,66.5,89.2z"/>
	<path class="st0" d="M85.1,77.4l1.3-5.1h17.5l1.2,5.1l-0.3,0.1c-1-1.3-2-2.4-3.1-3.1s-2-1.1-2.9-1.1c-0.5,0-0.9,0.2-1.1,0.5
		s-0.3,1.2-0.3,2.6v7.7c0,2.4,0.1,4,0.4,4.7s0.8,1.1,1.6,1.3v0.4c-0.6,0-1.3,0-1.9-0.1c-0.7,0-1.5,0-2.6,0c-1,0-1.8,0-2.5,0
		c-0.6,0-1.2,0-1.8,0.1v-0.4c0.8-0.2,1.3-0.6,1.6-1.3c0.3-0.7,0.4-2.3,0.4-4.8v-7.7c0-1.4-0.1-2.3-0.3-2.6c-0.2-0.3-0.6-0.5-1.1-0.5
		c-0.9,0-1.8,0.4-2.9,1.1S86.2,76.1,85.1,77.4L85.1,77.4z"/>
	<path class="st0" d="M102.4,90.5v-0.3c0.7-0.3,1.3-0.9,2.1-1.8c0.7-0.9,1.6-2.4,2.5-4.2l6.3-12.3h0.2L120,84c1.4,2.6,2.3,4.2,2.9,5
		s1.1,1.2,1.6,1.2v0.3c-0.5,0-1,0-1.6-0.1c-0.6,0-1.3,0-2.2,0c-1.2,0-2.1,0-2.9,0s-1.5,0-2.3,0.1v-0.3c0.5-0.1,0.8-0.2,1-0.4
		s0.3-0.4,0.3-0.8c0-0.3-0.1-0.8-0.3-1.4c-0.2-0.6-0.6-1.4-1-2.4l-1-1.9h-5.6l-0.4,0.9c-0.5,1-0.8,1.8-1,2.4s-0.3,1.2-0.3,1.6
		c0,0.5,0.2,1,0.5,1.3c0.4,0.3,0.8,0.5,1.5,0.6v0.3c-0.5,0-0.9,0-1.4-0.1c-0.5,0-1.1,0-1.9,0s-1.4,0-1.9,0
		C103.2,90.5,102.8,90.5,102.4,90.5z M113.9,82.4l-2.4-5l-2.4,5H113.9z"/>
	<path class="st0" d="M124.6,90.5v-0.4c0.8-0.2,1.3-0.6,1.6-1.3c0.3-0.7,0.4-2.3,0.4-4.8v-9.3c0-0.6-0.1-1.1-0.4-1.4
		c-0.2-0.3-0.7-0.6-1.3-0.7v-0.4c0.6,0,1.2,0.1,1.9,0.1c0.6,0,1.3,0,2,0s1.4,0,2.1,0s1.4,0,2-0.1v0.4c-0.6,0.1-1,0.3-1.3,0.7
		c-0.3,0.3-0.4,0.8-0.4,1.5v9c0,2.5,0.2,4.1,0.6,4.7c0.4,0.6,1.3,0.9,2.6,0.9c1.6,0,3.1-0.4,4.5-1.3s2.7-2.2,3.9-3.9l0.4,0.1
		l-1.8,6.1h-11.1c-0.2,0-0.5,0-0.9,0s-0.7,0-0.9,0c-0.7,0-1.4,0-2.1,0C125.9,90.5,125.2,90.5,124.6,90.5z"/>
	<path class="st0" d="M157.9,81.9c-0.6-0.7-1.1-1.4-1.4-2.1c-0.3-0.7-0.5-1.4-0.5-2.1c0-1.3,0.5-2.4,1.5-3.2c1-0.9,2.2-1.3,3.7-1.3
		c1.4,0,2.5,0.3,3.3,1s1.3,1.5,1.3,2.6c0,0.9-0.4,1.7-1.1,2.4c-0.7,0.7-1.8,1.2-3.2,1.7c0.6,0.7,1.4,1.4,2.2,2.2
		c0.8,0.8,1.8,1.7,3,2.7c0.1-0.3,0.2-0.5,0.2-0.7s0.1-0.4,0.1-0.6c0-0.7-0.2-1.3-0.7-1.7c-0.5-0.4-1.1-0.7-2-0.8v-0.3h6.2
		c0,0.8-0.2,1.7-0.6,2.6c-0.4,0.9-1,1.8-1.7,2.8c0.9,0.8,1.7,1.5,2.6,2c0.9,0.5,1.7,1,2.5,1.2v0.4c-0.1,0-0.3,0-0.6,0
		c-1.8,0-3.1,0-3.8,0c-0.6,0-1.1,0-1.4,0c-0.3,0-0.5,0-0.8,0l-1-0.9c-0.8,0.5-1.7,0.8-2.5,1.1c-0.9,0.2-1.8,0.4-2.8,0.4
		c-2,0-3.7-0.4-4.9-1.2c-1.2-0.8-1.8-1.9-1.8-3.3c0-0.9,0.4-1.8,1.1-2.6C155.4,83.1,156.5,82.4,157.9,81.9z M164.7,88.8
		c-1.1-1-2.2-2-3.2-3.1c-1-1-2-2-2.8-3c-0.3,0.2-0.4,0.6-0.6,1c-0.1,0.4-0.2,0.9-0.2,1.4c0,1.2,0.4,2.2,1.3,3.1
		c0.9,0.9,1.9,1.3,3.1,1.3c0.5,0,0.9-0.1,1.3-0.2C164,89.2,164.4,89.1,164.7,88.8z M160.7,80.1c0.5-0.4,1-0.8,1.2-1.4
		c0.3-0.6,0.4-1.2,0.4-2c0-0.7-0.2-1.4-0.5-1.9c-0.4-0.5-0.8-0.7-1.4-0.7c-0.5,0-1,0.2-1.3,0.6s-0.5,0.9-0.5,1.6
		c0,0.6,0.1,1.2,0.4,1.7C159.4,78.6,159.9,79.3,160.7,80.1z"/>
	<path class="st0" d="M181.7,77.4l1.3-5.1h17.5l1.2,5.1l-0.3,0.1c-1-1.3-2-2.4-3.1-3.1s-2-1.1-2.9-1.1c-0.5,0-0.9,0.2-1.1,0.5
		c-0.2,0.3-0.3,1.2-0.3,2.6v7.7c0,2.4,0.1,4,0.4,4.7c0.3,0.7,0.8,1.1,1.6,1.3v0.4c-0.6,0-1.3,0-1.9-0.1c-0.7,0-1.5,0-2.6,0
		c-1,0-1.8,0-2.5,0c-0.6,0-1.2,0-1.8,0.1v-0.4c0.8-0.2,1.3-0.6,1.6-1.3c0.3-0.7,0.4-2.3,0.4-4.8v-7.7c0-1.4-0.1-2.3-0.3-2.6
		c-0.2-0.3-0.6-0.5-1.1-0.5c-0.9,0-1.8,0.4-2.9,1.1C183.8,75,182.8,76.1,181.7,77.4L181.7,77.4z"/>
	<path class="st0" d="M208.7,84.1c0,2.4,0.1,4,0.4,4.7c0.3,0.7,0.8,1.2,1.6,1.3v0.4c-0.6,0-1.2,0-1.9-0.1c-0.6,0-1.5,0-2.6,0
		c-1,0-1.8,0-2.4,0c-0.6,0-1.2,0-1.7,0.1v-0.4c0.8-0.2,1.3-0.6,1.6-1.3s0.4-2.3,0.4-4.8v-9.3c0-0.6-0.1-1.1-0.4-1.4
		c-0.2-0.3-0.7-0.6-1.3-0.7v-0.4c0.7,0,1.4,0,2,0c0.7,0,1.5,0,2.5,0h2.9c4.1,0,6.9,0.3,8.4,1s2.3,1.8,2.3,3.4c0,1.2-0.6,2.2-1.8,3
		s-2.9,1.2-5,1.3c1.5,0.1,2.7,0.5,3.6,1.1c0.9,0.6,1.6,1.6,2.2,3c0.1,0.2,0.2,0.5,0.3,0.8c0.9,2.3,1.9,3.7,3,4.1v0.4
		c-0.9,0-1.9,0-2.9,0s-2.3,0-3.9,0c-0.4-0.7-0.8-1.9-1.3-3.5c-0.4-1.6-0.9-2.7-1.3-3.4c-0.5-0.8-1-1.4-1.7-1.7
		c-0.7-0.4-1.5-0.5-2.6-0.5c-0.1,0-0.2,0-0.3,0s-0.2,0-0.3,0v2.9H208.7z M208.7,80.3c0.2,0,0.4,0,0.7,0c0.6,0,1.1,0,1.3,0
		c1.5,0,2.7-0.3,3.6-0.9c0.8-0.6,1.3-1.5,1.3-2.6c0-1.2-0.4-2.1-1.3-2.6s-2.1-0.9-3.8-0.9c-0.4,0-0.8,0-1,0c-0.3,0-0.5,0-0.8,0V80.3
		z"/>
	<path class="st0" d="M223.7,81.3c0-1.4,0.3-2.7,0.8-3.9c0.5-1.2,1.4-2.2,2.4-3.2c1-0.8,2-1.4,3.3-1.8c1.2-0.4,2.5-0.6,4-0.6
		s2.8,0.2,4,0.6s2.3,1,3.2,1.9c1.1,1,1.9,2,2.5,3.2c0.5,1.2,0.8,2.5,0.8,3.8c0,1.4-0.3,2.6-0.8,3.8c-0.6,1.2-1.4,2.3-2.5,3.3
		c-0.9,0.8-2,1.4-3.2,1.9c-1.2,0.4-2.5,0.7-3.9,0.7s-2.8-0.2-4-0.7c-1.3-0.4-2.4-1.1-3.3-1.9c-1-0.9-1.8-2-2.3-3.2
		C224,84,223.7,82.7,223.7,81.3z M234.2,90c1.8,0,3.1-0.7,3.9-2.1c0.9-1.4,1.3-3.6,1.3-6.5s-0.4-5.1-1.3-6.5c-0.9-1.4-2.2-2.1-4-2.1
		s-3.1,0.7-3.9,2.1c-0.8,1.4-1.3,3.6-1.3,6.5c0,3,0.4,5.2,1.3,6.6C231.1,89.3,232.4,90,234.2,90z"/>
	<path class="st0" d="M246.5,72.3c0.7,0,1.5,0,2.3,0s1.9,0,3.2,0h1.9c2,0,3.5,0.1,4.5,0.2s1.9,0.3,2.7,0.5c1.1,0.3,2,0.9,2.6,1.6
		s0.9,1.5,0.9,2.5c0,1.5-0.9,2.7-2.6,3.6s-4.1,1.3-7,1.3c-0.3,0-0.6,0-1,0s-0.8,0-1.3,0v2.2c0,2.4,0.1,3.9,0.4,4.7
		c0.3,0.7,0.8,1.2,1.6,1.4v0.4c-0.6,0-1.2,0-1.9-0.1c-0.6,0-1.5,0-2.6,0c-1,0-1.9,0-2.5,0s-1.2,0-1.7,0.1v-0.4
		c0.8-0.2,1.3-0.6,1.6-1.3c0.3-0.7,0.4-2.3,0.4-4.8v-9.3c0-0.6-0.1-1.1-0.4-1.4c-0.2-0.3-0.7-0.6-1.3-0.7L246.5,72.3z M252.8,80.9
		c0.3,0.1,0.5,0.1,0.8,0.1s0.5,0,0.8,0c1.6,0,2.8-0.3,3.7-1s1.3-1.7,1.3-2.9c0-1.3-0.4-2.2-1.3-2.8c-0.9-0.6-2.2-0.9-4.1-0.9
		c-0.2,0-0.5,0-1,0c-0.1,0-0.2,0-0.2,0V80.9z"/>
	<path class="st0" d="M271.7,80.3c0.2,0,0.5,0,0.9,0.1c0.4,0,1,0,2,0h2.3c0.4,0,0.9,0,1.4,0s1,0,1.5,0v-5.5c0-0.6-0.1-1.1-0.4-1.5
		c-0.3-0.3-0.7-0.6-1.3-0.7v-0.4c0.6,0,1.3,0.1,2,0.1s1.3,0,2,0s1.4,0,2,0c0.7,0,1.3,0,2-0.1v0.4c-0.6,0.1-1,0.3-1.3,0.7
		s-0.4,0.8-0.4,1.5v9.3c0,2.4,0.1,3.9,0.4,4.7c0.3,0.7,0.8,1.2,1.6,1.4v0.4c-0.6,0-1.2,0-1.8-0.1c-0.6,0-1.5,0-2.5,0s-1.9,0-2.5,0
		s-1.2,0-1.8,0.1v-0.4c0.8-0.2,1.3-0.6,1.6-1.3c0.3-0.7,0.4-2.3,0.4-4.8v-2.7c-0.3,0-0.6,0-1,0s-1,0-1.9,0h-2.3c-0.9,0-1.5,0-1.9,0
		s-0.7,0-1,0v2.7c0,2.4,0.1,4,0.4,4.7s0.8,1.1,1.6,1.3v0.4c-0.6,0-1.2,0-1.9-0.1c-0.6,0-1.5,0-2.6,0c-1,0-1.8,0-2.4,0
		s-1.2,0-1.7,0.1v-0.4c0.8-0.2,1.3-0.6,1.6-1.3c0.3-0.7,0.4-2.3,0.4-4.8v-9.3c0-0.6-0.1-1.1-0.4-1.4c-0.2-0.3-0.7-0.6-1.3-0.7v-0.4
		c0.6,0,1.3,0.1,1.9,0.1s1.3,0,2,0s1.4,0,2.1,0s1.4,0,2-0.1v0.4c-0.6,0.1-1,0.3-1.3,0.7c-0.3,0.3-0.4,0.8-0.4,1.5L271.7,80.3
		L271.7,80.3z"/>
	<path class="st0" d="M294,84.1c0,2.4,0.1,4,0.4,4.7s0.8,1.2,1.6,1.3v0.4c-0.6,0-1.3,0-1.9-0.1c-0.7,0-1.6,0-2.7,0s-1.9,0-2.5,0
		s-1.2,0-1.8,0.1v-0.4c0.8-0.2,1.3-0.6,1.6-1.3c0.3-0.7,0.4-2.3,0.4-4.8v-9.3c0-0.6-0.1-1.1-0.4-1.4s-0.7-0.6-1.3-0.7v-0.4
		c0.6,0,1.3,0.1,1.9,0.1c0.7,0,1.3,0,2,0s1.4,0,2.1,0s1.4,0,2.1-0.1v0.4c-0.6,0.1-1.1,0.4-1.3,0.7c-0.3,0.3-0.4,0.8-0.4,1.5v9.3H294
		z"/>
	<path class="st0" d="M296.9,90.5v-0.4c0.8-0.2,1.3-0.6,1.6-1.3c0.3-0.7,0.4-2.3,0.4-4.8v-9.3c0-0.6-0.1-1.1-0.4-1.4
		c-0.2-0.3-0.7-0.6-1.3-0.7v-0.4c0,0,0.1,0,0.2,0c1.9,0,3.4,0.1,4.3,0.1h11.5l1.6,4.7l-0.4,0.1c-1.2-1.3-2.5-2.3-4-2.9
		s-3.2-0.9-5.2-0.9c-0.5,0-0.8,0-1,0s-0.4,0-0.6,0v7c0.3,0,0.6,0,0.9,0s0.6,0,0.9,0c1.6,0,3-0.3,4-0.8c1.1-0.5,1.7-1.3,2-2.2h0.4
		v6.9h-0.4c-0.3-1-1-1.7-2-2.3c-1-0.5-2.4-0.8-4.1-0.8c-0.5,0-0.8,0-1.1,0c-0.2,0-0.5,0-0.7,0v2.5c0,2.5,0.2,4.1,0.6,4.7
		s1.3,0.9,2.6,0.9c1.7,0,3.2-0.4,4.6-1.3c1.4-0.8,2.8-2.1,4.1-3.8l0.5,0.2l-1.8,5.9h-11.5c-0.2,0-0.5,0-0.9,0s-0.7,0-0.9,0
		c-0.7,0-1.4,0-2.1,0C298.2,90.5,297.5,90.5,296.9,90.5z"/>
	<path class="st0" d="M316.5,89.2L318,84h0.3c0.3,2,1.1,3.4,2.2,4.5c1.1,1,2.5,1.5,4.3,1.5c1.4,0,2.6-0.3,3.4-1s1.2-1.6,1.2-2.7
		c0-0.8-0.3-1.4-0.9-1.9c-0.6-0.4-1.9-0.9-4-1.3c-1.8-0.3-3-0.7-3.7-0.9c-0.7-0.3-1.3-0.6-1.7-1c-0.5-0.5-0.9-1-1.2-1.6
		c-0.3-0.6-0.4-1.3-0.4-2c0-1.7,0.8-3.1,2.3-4.2s3.5-1.6,6.1-1.6c1.3,0,2.5,0.1,3.7,0.4c1.2,0.2,2.4,0.6,3.4,1.1l-1.3,4.4h-0.4
		c-0.4-1.6-1-2.9-1.9-3.7c-0.9-0.8-2-1.2-3.5-1.2c-1.2,0-2.2,0.3-3,0.9s-1.2,1.3-1.2,2.3c0,0.4,0.1,0.7,0.2,1
		c0.2,0.3,0.4,0.6,0.7,0.9c0.5,0.4,1.7,0.7,3.6,1.1c0.8,0.1,1.4,0.2,1.8,0.3c1.9,0.4,3.4,1,4.3,1.9s1.4,2,1.4,3.4
		c0,1.9-0.8,3.4-2.4,4.6s-3.8,1.8-6.4,1.8c-1.6,0-3.1-0.2-4.6-0.5C318.9,90.2,317.6,89.8,316.5,89.2z"/>
</g>
</svg>
